<svg width="64" height="64" viewBox="0 0 64 64" fill="none" xmlns="http://www.w3.org/2000/svg">
<rect width="64" height="64" rx="32" fill="#E8EEFD"/>
<path d="M31.0242 22.2289C31.5606 21.7707 32.4713 21.7707 33.0076 22.2289L33.0086 22.2299L34.6932 23.6694L34.699 23.6733C34.9207 23.858 35.2124 24.0079 35.4949 24.1108C35.7775 24.2136 36.0998 24.2875 36.3943 24.2875H38.2078C39.0438 24.2875 39.733 24.977 39.7332 25.8129V27.6264C39.7332 27.9217 39.8086 28.2422 39.9119 28.5229C40.0153 28.8037 40.1641 29.0918 40.3475 29.312L40.3524 29.3168L41.7918 31.0024C42.2535 31.5531 42.2451 32.4574 41.7791 32.977L41.7703 32.9868L40.3309 34.6723L40.326 34.6772C40.1426 34.8973 39.9938 35.1855 39.8904 35.4662C39.7871 35.7469 39.7117 36.0675 39.7117 36.3627V38.1762C39.7116 39.0122 39.0224 39.7016 38.1863 39.7016H36.3738C36.0787 39.7016 35.7579 39.7761 35.4774 39.8793C35.1965 39.9827 34.9084 40.1324 34.6883 40.3159L34.6824 40.3198L32.9979 41.7602C32.4615 42.2188 31.55 42.2187 31.0135 41.7602L29.3279 40.3198L29.3231 40.3159L29.1443 40.184C28.9558 40.0596 28.7394 39.9564 28.5291 39.8793C28.2488 39.7767 27.9281 39.7016 27.6375 39.7016H25.7811C24.9452 39.7014 24.2558 39.0121 24.2557 38.1762V36.352C24.2557 36.0652 24.185 35.7469 24.0848 35.4662C23.9854 35.1881 23.8381 34.8944 23.6483 34.6733H23.6492L22.2088 32.977L22.1297 32.8745C21.763 32.342 21.7837 31.5133 22.2127 30.9955L23.6492 29.3051L23.6522 29.3012C23.8376 29.0787 23.9846 28.7883 24.0848 28.5092C24.185 28.23 24.2557 27.9138 24.2557 27.6264V25.8129C24.2559 24.9771 24.9452 24.2877 25.7811 24.2875H27.6268C27.922 24.2875 28.2426 24.2131 28.5233 24.1098C28.8041 24.0064 29.0922 23.8567 29.3123 23.6733L29.3143 23.6713L31.0213 22.2319L31.0242 22.2289ZM31.9998 34.5278C31.1046 34.5279 30.4002 35.2507 30.4002 36.1284C30.4004 37.0093 31.1188 37.7279 31.9998 37.728C32.8951 37.728 33.6002 37.0059 33.6004 36.1284C33.6004 35.2471 32.881 34.5278 31.9998 34.5278ZM31.9998 26.5385C31.2682 26.5386 30.6671 27.1399 30.6668 27.8715V33.0239C30.6668 33.7557 31.268 34.3568 31.9998 34.3569C32.7317 34.3569 33.3338 33.7557 33.3338 33.0239V27.8715C33.3335 27.1398 32.7315 26.5385 31.9998 26.5385Z" fill="#1659E6" stroke="#1659E6" stroke-width="1.06667"/>
</svg>
